<svg width="155" height="178" viewBox="0 0 155 178" fill="none" xmlns="http://www.w3.org/2000/svg">
<path fill-rule="evenodd" clip-rule="evenodd" d="M81.9996 0C82.139 6.80645e-05 82.2905 0.0323119 82.4283 0.121094C82.5662 0.210025 82.6567 0.333595 82.7125 0.458008C82.815 0.686722 82.8157 0.95123 82.7926 1.1748C82.7444 1.64006 82.5554 2.25824 82.2955 2.94336C81.7691 4.33101 80.8827 6.16455 79.9439 7.97949C79.0028 9.79899 78.0002 11.6174 77.233 12.9795C76.8493 13.6607 76.5237 14.2293 76.2945 14.627C76.1801 14.8256 76.089 14.9822 76.027 15.0889C75.9961 15.1419 75.9728 15.1833 75.9566 15.2109C75.9557 15.2126 75.9546 15.2143 75.9537 15.2158C75.5045 16.3844 75.3571 17.3404 75.4352 18.0664C75.5126 18.7865 75.8062 19.2646 76.2438 19.5479C76.6957 19.8401 77.3799 19.9756 78.3229 19.8369C79.263 19.6985 80.4194 19.2929 81.7604 18.5615C84.5154 17.0588 89.1588 14.6732 92.4957 13.2881C93.3306 12.9415 94.0937 12.654 94.7291 12.458C95.3412 12.2692 95.9063 12.1423 96.3121 12.1738C96.5076 12.1891 96.8071 12.2508 96.9918 12.5137C97.1873 12.7922 97.1268 13.1064 97.0484 13.3125C96.9658 13.5294 96.8156 13.7614 96.6256 14.0029C96.4312 14.2499 96.1746 14.533 95.8541 14.8535C93.433 17.2746 91.7473 20.1597 91.1305 22.4805C90.8207 23.6462 90.796 24.6131 91.023 25.2959C91.2362 25.9365 91.6765 26.3552 92.442 26.4854L92.4449 26.4863C92.4828 26.4927 92.5223 26.4989 92.5621 26.5039V26.5078C123.378 32.1322 147.462 54.7569 153.491 86.4062C156.511 102.26 153.997 114.242 149.891 123.086C145.789 131.921 140.109 137.598 136.853 140.854C133.671 144.036 132.024 147.514 132.558 151.433C133.097 155.382 135.866 159.906 141.83 165.124L142.453 165.669L141.679 165.967C121.033 173.907 108.106 177.405 77.3033 178H77.2916C50.0543 177.894 35.7627 175.493 12.6031 165.962L11.7965 165.631L12.4908 165.103C19.6996 159.615 22.6416 155.246 22.6481 151.188C22.6545 147.116 19.7109 143.123 14.4586 138.371C9.10638 133.529 4.93211 125.142 2.4752 115.706C0.0153881 106.259 -0.742964 95.688 0.800395 86.418C5.43183 58.6001 28.2113 34.0076 60.8961 27.0576C61.0934 27.0156 61.1737 26.9797 61.2555 26.9082C61.3584 26.818 61.4987 26.6377 61.7154 26.2197C62.1498 25.3821 62.7812 23.8255 64.0387 20.8076C64.6874 19.2508 65.9977 17.1801 67.6031 14.9717C69.2149 12.7545 71.1466 10.3678 73.0602 8.17188C74.9732 5.97659 76.876 3.96362 78.4303 2.49609C79.2062 1.76348 79.9044 1.15757 80.4791 0.732422C80.7655 0.520569 81.0321 0.345814 81.2691 0.22168C81.463 0.120234 81.6853 0.0265826 81.9059 0.00488281L81.9996 0ZM78.6031 82.3604C72.0388 81.9837 64.7442 84.0079 59.5123 89.8809C55.7186 94.1394 52.2041 96.2109 48.3717 97.4053C44.339 98.662 39.8635 98.9967 33.7379 99.5068C28.5744 99.6923 24.4387 101.651 21.652 104.818C18.8903 107.958 17.7147 111.986 17.8775 115.855C18.1896 123.267 23.5308 130.772 33.0807 131.45C33.1569 131.523 33.2463 131.606 33.3443 131.704C33.9939 132.354 34.7427 133.167 35.8023 134.281C37.839 136.422 40.6148 139.232 44.2037 142.006C51.4298 147.591 61.9171 153 76.4996 153C91.0204 153 102.585 147.606 110.41 142.058C114.321 139.284 117.348 136.438 119.398 134.126C120.261 133.152 120.987 132.23 121.545 131.411C130.954 130.518 136.627 123.402 137.236 116.017C137.565 112.02 136.42 107.832 133.482 104.62C130.504 101.364 126.044 99.5001 120.5 99.5C120.493 99.4998 120.384 99.4968 120.14 99.4727C119.903 99.4492 119.594 99.4115 119.215 99.3564C118.458 99.2462 117.484 99.0758 116.35 98.8457C114.082 98.3852 111.257 97.6993 108.366 96.8076C105.462 95.9119 102.577 94.8351 100.146 93.6143C97.6369 92.3542 95.9727 91.1174 95.1373 90.0605C91.4966 85.4549 85.0397 82.7298 78.6031 82.3604ZM110.769 131.5C109.389 132.776 107.721 134.157 105.782 135.532C98.9586 140.37 88.9781 145 76.4996 145C64.0825 145 55.2696 140.447 49.0963 135.676C47.2817 134.273 45.6937 132.848 44.2994 131.5H110.769ZM65.4859 95.2021C68.7538 91.5339 73.4598 90.0788 78.1451 90.3477C82.9579 90.6239 87.0013 92.6692 88.8609 95.0215C90.7754 97.4436 93.6743 99.3168 96.5553 100.764C99.5145 102.25 102.849 103.478 106.007 104.452C109.178 105.43 112.261 106.18 114.758 106.687C117.118 107.166 119.297 107.5 120.5 107.5C124.204 107.5 126.37 108.698 127.579 110.02C128.828 111.386 129.433 113.292 129.262 115.358C128.927 119.425 125.618 123.688 119.114 123.502L119.056 123.5H119V125.523C119 123.588 118.999 123.504 118.999 123.5H34.4996C28.9391 123.5 26.0437 119.623 25.8707 115.52C25.7837 113.451 26.4206 111.51 27.6588 110.103C28.8462 108.753 30.8479 107.594 34.1168 107.498L34.2242 107.495L34.3316 107.486C40.1691 107 45.6752 106.625 50.7516 105.043C56.044 103.394 60.7798 100.485 65.4859 95.2021ZM68.9996 101.5C67.3428 101.5 65.4996 103.515 65.4996 106C65.4996 108.485 67.3428 111 68.9996 111C70.6565 111 71.9996 108.485 71.9996 106C71.9996 103.515 70.6565 101.5 68.9996 101.5ZM85.4996 101.5C83.8428 101.5 82.4996 103.515 82.4996 106C82.4996 108.485 83.8428 111 85.4996 111C87.1565 111 88.9996 108.485 88.9996 106C88.9996 103.515 87.1565 101.5 85.4996 101.5ZM39.1246 65.5C32.1584 65.5 24.9118 69.7623 22.6373 78.21C22.063 80.3431 23.3265 82.5379 25.4596 83.1123C27.5927 83.6866 29.7875 82.4231 30.3619 80.29C31.5875 75.7379 35.3409 73.5 39.1246 73.5C42.873 73.5 46.2364 75.6613 47.0719 80.0059C47.4893 82.175 49.5863 83.5949 51.7555 83.1777C53.9246 82.7603 55.3445 80.6634 54.9273 78.4941C53.2627 69.839 46.1261 65.5 39.1246 65.5ZM115.125 65.5C108.158 65.5 100.912 69.7622 98.6373 78.21C98.063 80.3431 99.3265 82.5379 101.46 83.1123C103.593 83.6866 105.788 82.4231 106.362 80.29C107.588 75.7379 111.341 73.5 115.125 73.5C118.873 73.5 122.236 75.6613 123.072 80.0059C123.489 82.175 125.586 83.5949 127.755 83.1777C129.925 82.7603 131.345 80.6634 130.927 78.4941C129.263 69.839 122.126 65.5 115.125 65.5Z" fill="#E68BBE"/>
</svg>
