<svg width="155" height="178" viewBox="0 0 155 178" fill="none" xmlns="http://www.w3.org/2000/svg">
<path fill-rule="evenodd" clip-rule="evenodd" d="M81.9996 0C82.1391 3.75654e-05 82.2905 0.0322698 82.4283 0.121094C82.5662 0.210031 82.6566 0.333553 82.7125 0.458008C82.815 0.686746 82.8157 0.951201 82.7926 1.1748C82.7444 1.64007 82.5554 2.25821 82.2955 2.94336C81.7691 4.33103 80.8827 6.16452 79.9439 7.97949C79.0028 9.79903 78.0002 11.6174 77.233 12.9795C76.8493 13.6608 76.5237 14.2293 76.2945 14.627C76.18 14.8256 76.089 14.9822 76.027 15.0889C75.9961 15.142 75.9728 15.1833 75.9566 15.2109C75.9557 15.2126 75.9546 15.2143 75.9537 15.2158C75.5045 16.3844 75.3571 17.3404 75.4352 18.0664C75.5126 18.7865 75.8062 19.2646 76.2438 19.5479C76.6957 19.8402 77.3798 19.9756 78.3229 19.8369C79.263 19.6985 80.4193 19.2929 81.7604 18.5615C84.5153 17.0588 89.1588 14.6732 92.4957 13.2881C93.3307 12.9415 94.0937 12.654 94.7291 12.458C95.3413 12.2692 95.9062 12.1423 96.3121 12.1738C96.5076 12.1891 96.807 12.2507 96.9918 12.5137C97.1874 12.7923 97.1269 13.1064 97.0484 13.3125C96.9658 13.5294 96.8157 13.7614 96.6256 14.0029C96.4312 14.2499 96.1746 14.533 95.8541 14.8535C93.433 17.2746 91.7473 20.1596 91.1305 22.4805C90.8207 23.6462 90.796 24.6131 91.023 25.2959C91.2362 25.9365 91.6764 26.3552 92.442 26.4854L92.4449 26.4863C92.4829 26.4927 92.5223 26.4989 92.5621 26.5039V26.5078C123.378 32.1321 147.462 54.7568 153.491 86.4062C156.511 102.26 153.997 114.242 149.891 123.086C145.789 131.921 140.109 137.598 136.853 140.854C133.671 144.036 132.024 147.514 132.558 151.433C133.097 155.382 135.866 159.906 141.83 165.124L142.453 165.669L141.679 165.967C121.033 173.907 108.106 177.405 77.3033 178H77.2916C50.0543 177.894 35.7628 175.493 12.6031 165.962L11.7965 165.631L12.4908 165.103C19.6997 159.615 22.6416 155.246 22.6481 151.188C22.6545 147.116 19.711 143.123 14.4586 138.371C9.10638 133.529 4.93211 125.142 2.4752 115.706C0.0153881 106.259 -0.742964 95.688 0.800395 86.418C5.43181 58.6001 28.2112 34.0076 60.8961 27.0576C61.0936 27.0156 61.1737 26.9798 61.2555 26.9082C61.3585 26.818 61.4986 26.6378 61.7154 26.2197C62.1498 25.3822 62.7812 23.8256 64.0387 20.8076C64.6874 19.2507 65.9977 17.1801 67.6031 14.9717C69.2149 12.7545 71.1465 10.3678 73.0602 8.17188C74.9732 5.97655 76.8759 3.96364 78.4303 2.49609C79.2063 1.76343 79.9044 1.15759 80.4791 0.732422C80.7655 0.520527 81.032 0.345832 81.2691 0.22168C81.463 0.120203 81.6852 0.0265884 81.9059 0.00488281L81.9996 0ZM78.6041 82.3604C72.0398 81.9836 64.7452 84.008 59.5133 89.8809C55.7196 94.1393 52.2049 96.2109 48.3727 97.4053C44.34 98.6621 39.8644 98.9967 33.7389 99.5068C28.5754 99.6922 24.4397 101.651 21.6529 104.818C18.8913 107.958 17.7157 111.986 17.8785 115.855C18.1906 123.267 23.5315 130.772 33.0816 131.45C33.1579 131.523 33.2472 131.606 33.3453 131.704C33.9949 132.354 34.7436 133.167 35.8033 134.281C37.84 136.422 40.6157 139.232 44.2047 142.006C51.4308 147.591 61.918 153 76.5006 153C91.0212 153 102.586 147.606 110.411 142.058C114.321 139.284 117.349 136.438 119.399 134.126C120.262 133.152 120.988 132.23 121.546 131.411C130.955 130.517 136.628 123.402 137.237 116.017C137.566 112.021 136.421 107.832 133.483 104.62C130.505 101.364 126.045 99.5002 120.501 99.5C120.501 99.5 120.393 99.4977 120.141 99.4727C119.904 99.4492 119.595 99.4115 119.216 99.3564C118.459 99.2462 117.485 99.0758 116.351 98.8457C114.083 98.3852 111.258 97.6993 108.367 96.8076C105.463 95.912 102.578 94.8351 100.147 93.6143C97.6378 92.3541 95.9737 91.1175 95.1383 90.0605C91.4977 85.4549 85.0407 82.7299 78.6041 82.3604ZM110.77 131.5C109.39 132.776 107.722 134.157 105.783 135.532C98.9597 140.37 88.979 145 76.5006 145C64.0834 145 55.2706 140.447 49.0973 135.676C47.2826 134.273 45.6947 132.848 44.3004 131.5H110.77ZM65.4869 95.2021C68.7549 91.534 73.4607 90.0787 78.1461 90.3477C82.9588 90.624 87.0025 92.6692 88.8619 95.0215C90.7764 97.4436 93.6752 99.3168 96.5563 100.764C99.5156 102.25 102.85 103.478 106.008 104.452C109.179 105.43 112.262 106.18 114.759 106.687C117.119 107.166 119.298 107.5 120.501 107.5C124.205 107.5 126.371 108.698 127.58 110.02C128.829 111.386 129.434 113.292 129.263 115.358C128.928 119.425 125.618 123.687 119.115 123.502L119.057 123.5H119.001V125.523C119.001 123.588 119 123.504 119 123.5H34.5006C28.9398 123.5 26.0447 119.623 25.8717 115.52C25.7846 113.451 26.4215 111.51 27.6598 110.103C28.8472 108.753 30.8489 107.594 34.1178 107.498L34.2252 107.495L34.3326 107.486C40.1701 107 45.6762 106.625 50.7525 105.043C56.0449 103.394 60.7809 100.485 65.4869 95.2021ZM68.9996 101.5C67.3428 101.5 65.4996 103.515 65.4996 106C65.4996 108.485 67.3428 111 68.9996 111C70.6565 111 71.9996 108.485 71.9996 106C71.9996 103.515 70.6565 101.5 68.9996 101.5ZM85.4996 101.5C83.8428 101.5 82.4996 103.515 82.4996 106C82.4996 108.485 83.8428 111 85.4996 111C87.1565 111 88.9996 108.485 88.9996 106C88.9996 103.515 87.1565 101.5 85.4996 101.5ZM39.1246 65.5C32.1584 65.5001 24.9118 69.7623 22.6373 78.21C22.0631 80.343 23.3266 82.5378 25.4596 83.1123C27.5927 83.6866 29.7875 82.4231 30.3619 80.29C31.5875 75.738 35.341 73.5001 39.1246 73.5C42.873 73.5 46.2364 75.6613 47.0719 80.0059C47.4893 82.1749 49.5863 83.5948 51.7555 83.1777C53.9246 82.7603 55.3445 80.6634 54.9273 78.4941C53.2626 69.839 46.1261 65.5 39.1246 65.5ZM115.125 65.5C108.158 65.5001 100.912 69.7623 98.6373 78.21C98.0631 80.343 99.3266 82.5378 101.46 83.1123C103.593 83.6866 105.788 82.4231 106.362 80.29C107.587 75.738 111.341 73.5001 115.125 73.5C118.873 73.5 122.236 75.6613 123.072 80.0059C123.489 82.1749 125.586 83.5948 127.755 83.1777C129.925 82.7603 131.345 80.6634 130.927 78.4941C129.263 69.839 122.126 65.5 115.125 65.5Z" fill="#F6C25C"/>
</svg>
