<svg width="155" height="178" viewBox="0 0 155 178" fill="none" xmlns="http://www.w3.org/2000/svg">
<path fill-rule="evenodd" clip-rule="evenodd" d="M81.9996 0C82.1391 0 82.2904 0.0323339 82.4283 0.121094C82.5663 0.21001 82.6566 0.333543 82.7125 0.458008C82.815 0.686776 82.8157 0.951166 82.7926 1.1748C82.7444 1.64009 82.5554 2.25819 82.2955 2.94336C81.7691 4.33104 80.8827 6.16454 79.9439 7.97949C79.0028 9.79903 78.0001 11.6174 77.233 12.9795C76.8493 13.6608 76.5237 14.2293 76.2945 14.627C76.18 14.8256 76.089 14.9822 76.0269 15.0889C75.9961 15.142 75.9727 15.1833 75.9566 15.2109C75.9557 15.2126 75.9546 15.2143 75.9537 15.2158C75.5046 16.3843 75.3571 17.3404 75.4351 18.0664C75.5126 18.7864 75.8063 19.2646 76.2437 19.5479C76.6957 19.8402 77.3798 19.9755 78.3228 19.8369C79.263 19.6986 80.4193 19.2929 81.7603 18.5615C84.5152 17.0589 89.1587 14.6733 92.4957 13.2881C93.3306 12.9415 94.0937 12.654 94.7291 12.458C95.3412 12.2692 95.9062 12.1424 96.3121 12.1738C96.5076 12.1891 96.8069 12.2508 96.9918 12.5137C97.1876 12.7923 97.1269 13.1064 97.0484 13.3125C96.9658 13.5294 96.8157 13.7614 96.6256 14.0029C96.4312 14.2499 96.1746 14.533 95.8541 14.8535C93.4331 17.2746 91.7473 20.1597 91.1305 22.4805C90.8207 23.6461 90.7961 24.6131 91.023 25.2959C91.2362 25.9365 91.6766 26.3552 92.442 26.4854L92.4449 26.4863C92.4828 26.4927 92.5223 26.4989 92.5621 26.5039V26.5078C123.379 32.1321 147.462 54.7568 153.491 86.4062C156.511 102.26 153.997 114.242 149.891 123.086C145.789 131.921 140.109 137.598 136.853 140.854C133.671 144.036 132.024 147.514 132.558 151.433C133.097 155.382 135.867 159.906 141.83 165.124L142.453 165.669L141.679 165.967C121.033 173.907 108.106 177.405 77.3033 178H77.2916C50.0544 177.894 35.7628 175.493 12.6031 165.962L11.7965 165.631L12.4908 165.103C19.6998 159.615 22.6416 155.246 22.648 151.188C22.6544 147.116 19.711 143.123 14.4586 138.371C9.10644 133.529 4.93207 125.141 2.47519 115.706C0.0153976 106.259 -0.742959 95.688 0.800382 86.418C5.43177 58.6002 28.2114 34.0077 60.8961 27.0576C61.0936 27.0156 61.1737 26.9797 61.2555 26.9082C61.3584 26.818 61.4985 26.6379 61.7154 26.2197C62.1498 25.3822 62.7811 23.8257 64.0387 20.8076C64.6874 19.2508 65.9977 17.1801 67.6031 14.9717C69.2149 12.7545 71.1466 10.3678 73.0601 8.17188C74.9732 5.97659 76.8759 3.96366 78.4303 2.49609C79.2062 1.76347 79.9044 1.1576 80.4791 0.732422C80.7655 0.520552 81.0321 0.345846 81.2691 0.22168C81.463 0.120215 81.6852 0.0266568 81.9059 0.00488281L81.9996 0ZM78.6041 82.3604C72.0397 81.9837 64.7452 84.0079 59.5133 89.8809C55.7195 94.1395 52.2051 96.2109 48.3726 97.4053C44.3399 98.6621 39.8645 98.9967 33.7389 99.5068C28.5753 99.6922 24.4397 101.651 21.6529 104.818C18.8912 107.958 17.7157 111.986 17.8785 115.855C18.1906 123.267 23.5316 130.772 33.0816 131.45C33.1579 131.523 33.2472 131.606 33.3453 131.704C33.9949 132.354 34.7437 133.167 35.8033 134.281C37.8399 136.422 40.6157 139.232 44.2047 142.006C51.4308 147.591 61.918 153 76.5006 153C91.0214 153 102.586 147.606 110.411 142.058C114.322 139.284 117.349 136.438 119.399 134.126C120.262 133.152 120.988 132.23 121.546 131.411C130.955 130.518 136.628 123.402 137.237 116.017C137.566 112.02 136.421 107.832 133.483 104.62C130.505 101.364 126.045 99.5001 120.501 99.5C120.496 99.4999 120.388 99.4971 120.141 99.4727C119.904 99.4492 119.595 99.4116 119.216 99.3564C118.459 99.2462 117.485 99.0758 116.351 98.8457C114.083 98.3852 111.258 97.6993 108.367 96.8076C105.463 95.9119 102.578 94.8351 100.147 93.6143C97.6378 92.3541 95.9737 91.1175 95.1383 90.0605C91.4976 85.4549 85.0407 82.7298 78.6041 82.3604ZM110.77 131.5C109.39 132.776 107.722 134.157 105.783 135.532C98.9596 140.37 88.9791 145 76.5006 145C64.0834 145 55.2706 140.447 49.0973 135.676C47.2826 134.273 45.6947 132.848 44.3004 131.5H110.77ZM65.4869 95.2021C68.7548 91.5338 73.4607 90.0788 78.1461 90.3477C82.9589 90.6239 87.0023 92.6692 88.8619 95.0215C90.7764 97.4436 93.6752 99.3168 96.5562 100.764C99.5156 102.25 102.85 103.478 106.008 104.452C109.179 105.43 112.262 106.18 114.759 106.687C117.119 107.166 119.298 107.5 120.501 107.5C124.205 107.5 126.371 108.698 127.58 110.02C128.829 111.386 129.434 113.292 129.263 115.358C128.928 119.425 125.618 123.688 119.115 123.502L119.057 123.5H119.001V125.523C119 123.588 119 123.504 119 123.5H34.5006C28.9399 123.5 26.0446 119.623 25.8717 115.52C25.7846 113.451 26.4215 111.51 27.6598 110.103C28.8472 108.753 30.8488 107.594 34.1178 107.498L34.2252 107.495L34.3326 107.486C40.1702 107 45.6761 106.625 50.7525 105.043C56.045 103.394 60.7808 100.485 65.4869 95.2021ZM69.0006 101.5C67.3437 101.5 65.5006 103.515 65.5006 106C65.5006 108.485 67.3437 111 69.0006 111C70.6573 111 72.0006 108.485 72.0006 106C72.0006 103.515 70.6573 101.5 69.0006 101.5ZM85.5006 101.5C83.8437 101.5 82.5006 103.515 82.5006 106C82.5006 108.485 83.8437 111 85.5006 111C87.1574 111 89.0006 108.485 89.0006 106C89.0006 103.515 87.1574 101.5 85.5006 101.5ZM39.1256 65.5C32.1593 65.5 24.9128 69.7623 22.6383 78.21C22.064 80.3431 23.3275 82.5379 25.4605 83.1123C27.5936 83.6865 29.7885 82.4231 30.3629 80.29C31.5885 75.7379 35.3419 73.5 39.1256 73.5C42.8739 73.5001 46.2374 75.6614 47.0728 80.0059C47.4903 82.1749 49.5872 83.5949 51.7564 83.1777C53.9254 82.7602 55.3454 80.6633 54.9283 78.4941C53.2636 69.8391 46.127 65.5001 39.1256 65.5ZM115.126 65.5C108.159 65.5 100.913 69.7623 98.6383 78.21C98.064 80.3431 99.3275 82.5379 101.461 83.1123C103.594 83.6865 105.789 82.4231 106.363 80.29C107.588 75.7379 111.342 73.5 115.126 73.5C118.874 73.5001 122.237 75.6614 123.073 80.0059C123.49 82.1749 125.587 83.5949 127.756 83.1777C129.925 82.7602 131.345 80.6633 130.928 78.4941C129.264 69.8391 122.127 65.5001 115.126 65.5Z" fill="#C0BFFF"/>
</svg>
